<?xml version="1.0" encoding="utf-8"?>
<!-- Generator: Adobe Illustrator 15.1.0, SVG Export Plug-In . SVG Version: 6.00 Build 0)  -->
<!DOCTYPE svg PUBLIC "-//W3C//DTD SVG 1.1//EN" "http://www.w3.org/Graphics/SVG/1.1/DTD/svg11.dtd">
<svg version="1.1" xmlns="http://www.w3.org/2000/svg" xmlns:xlink="http://www.w3.org/1999/xlink" x="0px" y="0px" width="400px"
	 height="300px" viewBox="0 0 400 300" enable-background="new 0 0 400 300" xml:space="preserve">
<g id="Layer_8">
	<polygon opacity="0.7" fill="#57DFFF" points="193.75,158.06 334.618,167.611 390.266,108.489 312.178,106.916 	"/>
</g>
<g id="Layer_9">
	<polygon opacity="0.7" fill="#57DFFF" points="80.182,151.046 193.271,158.657 312.178,106.916 155.958,104.17 	"/>
</g>
<g id="Layer_3">
	<polygon opacity="0.8" fill="#FFC0E7" points="145.226,179.119 145.728,266.022 299.99,210.049 299.707,112.074 	"/>
</g>
<g id="Layer_14">
	<line fill="none" stroke="#3F002A" stroke-miterlimit="10" x1="192.979" y1="159.153" x2="78.545" y2="139.754"/>
</g>
<g id="Layer_11">
	<line fill="none" stroke="#3F002A" stroke-miterlimit="10" x1="194.54" y1="30.109" x2="194.1" y2="158.548"/>
</g>
<g id="Layer_5">
	<polygon opacity="0.7" fill="#990862" points="153.147,39.402 228.503,74.348 169.651,212.112 92.258,181.674 	"/>
</g>
<g id="Layer_6">
	<polygon opacity="0.7" fill="#57DFFF" points="80.182,151.046 192.447,158.328 76.962,208.935 9.706,194.553 	"/>
</g>
<g id="Layer_4">
	<polygon opacity="0.7" fill="#990862" points="228.503,74.348 169.651,212.112 256.172,246.44 312.397,113.172 	"/>
</g>
<g id="Layer_12">
	<line fill="none" stroke="#3F002A" stroke-miterlimit="10" x1="194.505" y1="157.743" x2="194.133" y2="266.604"/>
</g>
<g id="Layer_2">
	<polygon opacity="0.8" fill="#FFC0E7" points="145,85.916 299.626,29.942 299.538,112.074 145,179.119 	"/>
</g>
<g id="Layer_10">
	
		<line fill="none" stroke="#663003" stroke-width="3" stroke-linecap="round" stroke-linejoin="round" x1="242.721" y1="41.978" x2="145.197" y2="270.262"/>
</g>
<g id="Layer_7">
	<polygon opacity="0.7" fill="#57DFFF" points="192.447,158.328 76.962,208.935 259.118,247.832 334.618,167.611 	"/>
</g>
<g id="Layer_15">
	<line fill="none" stroke="#3F002A" stroke-miterlimit="10" x1="328.079" y1="178.858" x2="191.902" y2="157.707"/>
</g>
<g id="Layer_13">
	<line fill="none" stroke="#3F002A" stroke-miterlimit="10" x1="193.75" y1="157.516" x2="94.505" y2="226.269"/>
	<g>
		<text transform="matrix(1 0 0 1 327.959 296.2627)" font-family="'ArialMT'" font-size="9.325">w3resource.com</text>
		<g>
			<path fill-rule="evenodd" clip-rule="evenodd" fill="#FFFFFF" d="M322.633,289.366c-2.262,0.348-3.566,1.655-3.914,3.919
				c0-1.307,0-2.615,0-3.919C320.022,289.366,321.33,289.366,322.633,289.366z"/>
			<path fill-rule="evenodd" clip-rule="evenodd" d="M322.633,289.366c0.247,0,0.492,0,0.736,0c2.264,0.348,3.57,1.655,3.92,3.919
				c0,0.244,0,0.488,0,0.733c-0.35,2.264-1.656,3.568-3.92,3.92c-0.244,0-0.489,0-0.736,0c-2.262-0.352-3.566-1.656-3.914-3.92
				c0-0.245,0-0.489,0-0.733C319.066,291.021,320.371,289.714,322.633,289.366z M321.33,290.622
				c-0.396,0.223-0.691,0.462-0.955,0.771c-0.517,0.604-0.931,1.423-0.822,2.611c0.092,0.996,0.553,1.737,1.173,2.275
				c0.632,0.55,1.554,0.906,2.61,0.821c1.019-0.084,1.741-0.556,2.277-1.173c0.537-0.622,0.941-1.472,0.852-2.61
				c-0.079-1.017-0.603-1.773-1.17-2.276c-0.589-0.522-1.501-0.93-2.626-0.839C322.151,290.247,321.701,290.413,321.33,290.622z"/>
			<path fill-rule="evenodd" clip-rule="evenodd" fill="#FFFFFF" d="M323.369,289.366c1.307,0,2.611,0,3.92,0
				c0,1.304,0,2.612,0,3.919C326.939,291.021,325.633,289.714,323.369,289.366z"/>
			<path fill-rule="evenodd" clip-rule="evenodd" fill="#FFFFFF" d="M322.669,290.202c1.125-0.091,2.037,0.316,2.626,0.839
				c0.567,0.503,1.091,1.26,1.17,2.276c0.09,1.139-0.314,1.988-0.852,2.61c-0.536,0.617-1.259,1.089-2.277,1.173
				c-1.057,0.085-1.979-0.271-2.61-0.821c-0.62-0.538-1.081-1.279-1.173-2.275c-0.108-1.188,0.306-2.007,0.822-2.611
				c0.264-0.309,0.559-0.548,0.955-0.771C321.701,290.413,322.151,290.247,322.669,290.202z M322.731,291.24
				c-1.147,0.101-2.054,1.034-2.139,2.178c-0.109,1.435,0.889,2.546,2.175,2.644c0.748,0.058,1.252-0.179,1.738-0.517
				c-0.126-0.252-0.329-0.429-0.466-0.674c-0.28,0.156-0.504,0.338-0.869,0.371c-1.01,0.094-1.702-0.61-1.759-1.423
				c-0.082-1.124,0.745-1.845,1.773-1.76c0.426,0.036,0.658,0.225,0.955,0.472c0.184-0.214,0.398-0.394,0.587-0.604
				C324.239,291.516,323.676,291.159,322.731,291.24z"/>
			<path fill-rule="evenodd" clip-rule="evenodd" d="M324.728,291.927c-0.188,0.211-0.403,0.391-0.587,0.604
				c-0.297-0.247-0.529-0.436-0.955-0.472c-1.028-0.085-1.855,0.636-1.773,1.76c0.057,0.813,0.749,1.517,1.759,1.423
				c0.365-0.033,0.589-0.215,0.869-0.371c0.137,0.245,0.34,0.422,0.466,0.674c-0.486,0.338-0.99,0.574-1.738,0.517
				c-1.286-0.098-2.284-1.209-2.175-2.644c0.085-1.144,0.991-2.077,2.139-2.178C323.676,291.159,324.239,291.516,324.728,291.927z"
				/>
			<path fill-rule="evenodd" clip-rule="evenodd" fill="#FFFFFF" d="M318.719,294.019c0.348,2.264,1.652,3.568,3.914,3.92
				c-1.303,0-2.61,0-3.914,0C318.719,296.63,318.719,295.323,318.719,294.019z"/>
			<path fill-rule="evenodd" clip-rule="evenodd" fill="#FFFFFF" d="M327.289,294.019c0,1.305,0,2.611,0,3.92
				c-1.309,0-2.613,0-3.92,0C325.633,297.587,326.939,296.282,327.289,294.019z"/>
		</g>
	</g>
</g>
</svg>
